<svg width="213" height="51" viewBox="0 0 213 51" fill="none" xmlns="http://www.w3.org/2000/svg">
<path d="M32.8776 14.1266V6.62664C32.8776 -2.37351 14.8775 -2.12397 14.8775 6.87616L14.8527 11.0809L14.8775 14.8762L20.8775 20.8762V8.87616C20.8775 5.87605 26.8776 5.87605 26.8776 8.87616V20.8765L32.8776 14.6266V14.1266Z" fill="#DF2B39"/>
<path d="M14.1266 14.8762H6.62664C-2.37351 14.8762 -2.12397 32.8762 6.87616 32.8762L11.0809 32.901L14.8762 32.8762L20.8762 26.8762H8.87616C5.87605 26.8762 5.87605 20.8762 8.87616 20.8762L20.8775 20.8762L14.8775 14.8762L14.1266 14.8762Z" fill="#F4AE0F"/>
<path d="M33.6285 32.8766H41.1285C50.1286 32.8766 49.8791 14.8765 40.879 14.8765L36.6743 14.8517L32.8706 14.6339L26.879 20.8765L38.879 20.8765C41.8791 20.8765 41.8791 26.8766 38.879 26.8766L26.8776 26.8766L32.8763 32.8776L33.6285 32.8766Z" fill="#2662AC"/>
<path d="M14.8762 33.6271V41.1271C14.8762 50.1273 32.8763 49.8777 32.8763 40.8776L32.9011 36.6729L32.8763 32.8776L26.8763 26.8776L26.8763 38.8776C26.8763 41.8777 20.8762 41.8777 20.8762 38.8776L20.8762 26.8762L14.8762 32.8762L14.8762 33.6271Z" fill="#84B825"/>
<path d="M64.6941 25.1731C65.8627 25.1731 66.7908 24.8981 67.4783 24.3481C68.1657 23.7981 68.5094 23.0076 68.5094 21.9764C68.5094 20.9223 68.1886 20.1317 67.547 19.6047C66.9054 19.0776 65.9658 18.8141 64.7284 18.8141C64.293 18.8141 63.9035 18.8256 63.5598 18.8485C63.2389 18.8714 62.9296 18.9058 62.6317 18.9516V25.1731H64.6941ZM57.4414 29.2978V16.9923C57.4414 16.534 57.5674 16.1903 57.8195 15.9612C58.0716 15.7091 58.4153 15.5029 58.8507 15.3424C59.584 15.0904 60.4777 14.9071 61.5318 14.7925C62.5859 14.6779 63.5368 14.6206 64.3847 14.6206C67.4783 14.6206 69.8156 15.2852 71.3967 16.6142C73.0008 17.9204 73.8028 19.7078 73.8028 21.9764C73.8028 23.443 73.4477 24.7262 72.7373 25.8261C72.0498 26.9261 71.053 27.7854 69.7469 28.4041C68.4407 28.9999 66.871 29.2978 65.0378 29.2978H57.4414ZM62.6661 26.9948V35.9661C62.4369 36.0119 62.0932 36.0692 61.6349 36.138C61.1995 36.2067 60.7412 36.2411 60.26 36.2411C59.2288 36.2411 58.4955 36.0578 58.0601 35.6911C57.6476 35.3245 57.4414 34.6943 57.4414 33.8006V26.9948H62.6661Z" fill="#101828"/>
<path d="M80.063 27.0292V35.9661C79.8567 36.0119 79.5474 36.0692 79.1349 36.138C78.7224 36.2067 78.2756 36.2411 77.7944 36.2411C76.8319 36.2411 76.1216 36.0692 75.6633 35.7255C75.2279 35.3818 75.0102 34.7631 75.0102 33.8694V26.9261L80.063 27.0292ZM75.0102 29.5384V13.6238C75.2164 13.5551 75.5258 13.4863 75.9382 13.4176C76.3507 13.3488 76.7976 13.3145 77.2788 13.3145C78.2641 13.3145 78.9745 13.4863 79.4099 13.83C79.8453 14.1509 80.063 14.7696 80.063 15.6862V29.6415L75.0102 29.5384Z" fill="#101828"/>
<path d="M82.2075 27.0979H87.2603V29.5384C87.2603 30.5925 87.5353 31.3602 88.0853 31.8414C88.6352 32.2997 89.4029 32.5288 90.3882 32.5288C91.0069 32.5288 91.5225 32.4715 91.935 32.357C92.3704 32.2424 92.6912 32.1164 92.8974 31.9789V27.0979H97.9502V32.5976C97.9502 33.1475 97.8471 33.6173 97.6409 34.0069C97.4346 34.3964 97.0909 34.7401 96.6097 35.038C95.8764 35.4963 94.9713 35.8515 93.8943 36.1036C92.8402 36.3786 91.66 36.5161 90.3539 36.5161C88.7269 36.5161 87.2947 36.2755 86.0573 35.7942C84.8428 35.313 83.8918 34.5683 83.2043 33.56C82.5398 32.5288 82.2075 31.1997 82.2075 29.5728V27.0979ZM92.8974 28.6447V19.5703C93.1037 19.5015 93.413 19.4328 93.8255 19.3641C94.238 19.2953 94.6848 19.2609 95.166 19.2609C96.1514 19.2609 96.8618 19.4328 97.2972 19.7765C97.7325 20.0973 97.9502 20.7275 97.9502 21.667V28.6447H92.8974ZM82.2075 28.6447V19.5703C82.4137 19.5015 82.7231 19.4328 83.1356 19.3641C83.5481 19.2953 83.9949 19.2609 84.4761 19.2609C85.4615 19.2609 86.1718 19.4328 86.6072 19.7765C87.0426 20.0973 87.2603 20.7275 87.2603 21.667V28.6447H82.2075Z" fill="#101828"/>
<path d="M113.254 31.1883C113.254 32.8611 112.623 34.1787 111.363 35.1412C110.103 36.0807 108.27 36.5504 105.863 36.5504C103.984 36.5504 102.438 36.2755 101.223 35.7255C100.009 35.1526 99.4014 34.3391 99.4014 33.285C99.4014 32.8038 99.5045 32.3913 99.7108 32.0476C99.917 31.681 100.181 31.3945 100.501 31.1883C101.143 31.5778 101.888 31.9216 102.736 32.2195C103.606 32.5174 104.592 32.6663 105.692 32.6663C107.387 32.6663 108.235 32.1851 108.235 31.2227C108.235 30.8102 108.075 30.4894 107.754 30.2602C107.456 30.0082 106.975 29.8134 106.31 29.6759L104.798 29.3322C102.988 28.9655 101.624 28.3812 100.708 27.5791C99.8139 26.7542 99.367 25.6314 99.367 24.2106C99.367 22.6066 100.009 21.3348 101.292 20.3952C102.598 19.4557 104.351 18.986 106.551 18.986C107.651 18.986 108.648 19.1005 109.541 19.3297C110.435 19.5359 111.145 19.8567 111.672 20.2921C112.2 20.7275 112.463 21.2775 112.463 21.942C112.463 22.3774 112.371 22.7784 112.188 23.1451C112.005 23.4888 111.776 23.7638 111.501 23.97C111.226 23.8096 110.836 23.6492 110.332 23.4888C109.828 23.3055 109.266 23.1565 108.648 23.0419C108.052 22.9045 107.49 22.8357 106.963 22.8357C106.138 22.8357 105.485 22.9503 105.004 23.1794C104.546 23.4086 104.317 23.7523 104.317 24.2106C104.317 24.5085 104.443 24.772 104.695 25.0012C104.97 25.2074 105.451 25.3907 106.138 25.5512L107.513 25.8605C109.553 26.3417 111.019 27.0177 111.913 27.8885C112.807 28.7364 113.254 29.8363 113.254 31.1883Z" fill="#101828"/>
<path d="M130.902 17.9891C130.902 18.4933 130.765 18.9516 130.49 19.3641C130.215 19.7536 129.905 20.0515 129.562 20.2577C128.989 19.8682 128.336 19.5245 127.602 19.2266C126.892 18.9287 126.044 18.7797 125.059 18.7797C123.821 18.7797 122.756 19.0432 121.862 19.5703C120.991 20.0973 120.315 20.8765 119.834 21.9076C119.353 22.9159 119.112 24.1419 119.112 25.5855C119.112 27.8083 119.662 29.4926 120.762 30.6383C121.885 31.7841 123.397 32.357 125.299 32.357C126.308 32.357 127.167 32.2195 127.877 31.9445C128.588 31.6695 129.241 31.3487 129.837 30.982C130.18 31.2341 130.455 31.5664 130.662 31.9789C130.891 32.3684 131.005 32.8267 131.005 33.3538C131.005 33.8121 130.879 34.236 130.627 34.6256C130.398 34.9922 129.997 35.313 129.424 35.588C128.989 35.8172 128.37 36.0348 127.568 36.2411C126.789 36.4702 125.815 36.5848 124.646 36.5848C122.63 36.5848 120.797 36.1953 119.147 35.4161C117.497 34.6141 116.179 33.3996 115.194 31.7726C114.231 30.1456 113.75 28.0833 113.75 25.5855C113.75 23.2024 114.22 21.1973 115.159 19.5703C116.122 17.9204 117.405 16.6715 119.009 15.8237C120.636 14.9758 122.412 14.5519 124.337 14.5519C125.689 14.5519 126.858 14.7123 127.843 15.0331C128.828 15.331 129.585 15.7435 130.112 16.2705C130.639 16.7746 130.902 17.3475 130.902 17.9891Z" fill="#101828"/>
<path d="M138.849 32.7694C139.376 32.7694 139.892 32.7121 140.396 32.5976C140.923 32.483 141.301 32.357 141.53 32.2195V28.9197L138.608 29.1603C137.829 29.229 137.211 29.4009 136.752 29.6759C136.317 29.9509 136.099 30.3633 136.099 30.9133C136.099 31.4862 136.317 31.9445 136.752 32.2882C137.188 32.609 137.887 32.7694 138.849 32.7694ZM138.643 18.986C141.003 18.986 142.894 19.4901 144.314 20.4984C145.735 21.4837 146.445 23.019 146.445 25.1043V32.9069C146.445 33.4798 146.296 33.9496 145.999 34.3162C145.701 34.6599 145.334 34.9578 144.899 35.2099C144.211 35.6224 143.352 35.9432 142.321 36.1723C141.312 36.4015 140.155 36.5161 138.849 36.5161C136.512 36.5161 134.644 36.0692 133.246 35.1755C131.871 34.2589 131.184 32.8955 131.184 31.0852C131.184 29.5269 131.665 28.3353 132.628 27.5104C133.59 26.6625 135.022 26.1469 136.924 25.9636L141.53 25.4824V25.0699C141.53 24.2679 141.221 23.695 140.602 23.3513C139.983 23.0076 139.124 22.8357 138.024 22.8357C137.153 22.8357 136.294 22.9388 135.446 23.1451C134.598 23.3513 133.842 23.6034 133.177 23.9013C132.903 23.695 132.673 23.4086 132.49 23.0419C132.307 22.6753 132.215 22.2857 132.215 21.8733C132.215 20.9108 132.731 20.2119 133.762 19.7765C134.426 19.5245 135.194 19.3297 136.065 19.1922C136.958 19.0547 137.818 18.986 138.643 18.986Z" fill="#101828"/>
<path d="M164.086 28.5416H159.033V25.4824C159.033 24.6116 158.781 23.9815 158.277 23.5919C157.772 23.2023 157.119 23.0076 156.317 23.0076C155.744 23.0076 155.217 23.0763 154.736 23.2138C154.255 23.3513 153.808 23.5232 153.396 23.7294V28.5416H148.343V23.1794C148.343 22.6066 148.457 22.1368 148.687 21.7702C148.939 21.3806 149.305 21.0369 149.787 20.739C150.52 20.2348 151.448 19.8224 152.571 19.5015C153.716 19.1578 154.977 18.986 156.352 18.986C158.827 18.986 160.729 19.5359 162.058 20.6359C163.41 21.7129 164.086 23.2711 164.086 25.3105V28.5416ZM153.396 26.9604V35.9661C153.189 36.0119 152.88 36.0692 152.468 36.138C152.055 36.2067 151.608 36.2411 151.127 36.2411C150.165 36.2411 149.454 36.0692 148.996 35.7255C148.561 35.3818 148.343 34.7631 148.343 33.8694V26.9604H153.396ZM164.086 26.9604V35.9661C163.879 36.0119 163.57 36.0692 163.158 36.138C162.745 36.2067 162.298 36.2411 161.817 36.2411C160.855 36.2411 160.144 36.0692 159.686 35.7255C159.25 35.3818 159.033 34.7631 159.033 33.8694V26.9604H164.086Z" fill="#101828"/>
<path d="M178.539 19.1578C179.227 19.1578 179.811 19.3182 180.292 19.639C180.774 19.9369 181.014 20.4525 181.014 21.1858C181.014 21.5983 180.888 22.2399 180.636 23.1107C180.407 23.9815 180.098 24.9897 179.708 26.1355C179.341 27.2583 178.929 28.427 178.471 29.6415C178.012 30.8331 177.554 31.9559 177.096 33.01C176.637 34.0412 176.225 34.9005 175.858 35.588C175.606 35.7713 175.205 35.9317 174.655 36.0692C174.128 36.2296 173.532 36.3098 172.868 36.3098C172.089 36.3098 171.413 36.2067 170.84 36.0005C170.29 35.7942 169.912 35.4734 169.706 35.038C169.453 34.5568 169.144 33.8808 168.777 33.01C168.411 32.1393 168.01 31.1539 167.574 30.054C167.162 28.9311 166.749 27.7739 166.337 26.5823C165.947 25.3907 165.569 24.245 165.203 23.1451C164.859 22.0451 164.595 21.0827 164.412 20.2577C164.687 19.9599 165.054 19.7078 165.512 19.5015C165.993 19.2724 166.509 19.1578 167.059 19.1578C167.769 19.1578 168.342 19.3068 168.777 19.6047C169.236 19.9026 169.579 20.464 169.809 21.2889L171.321 26.7542C171.504 27.3958 171.688 28.0375 171.871 28.6791C172.077 29.3207 172.261 29.928 172.421 30.5008C172.604 31.0508 172.742 31.5091 172.833 31.8757H173.005C173.555 30.0196 174.105 28.0375 174.655 25.9293C175.228 23.7981 175.732 21.7243 176.168 19.7078C176.878 19.3411 177.669 19.1578 178.539 19.1578Z" fill="#101828"/>
<path d="M188.35 32.7694C188.877 32.7694 189.392 32.7121 189.897 32.5976C190.424 32.483 190.802 32.357 191.031 32.2195V28.9197L188.109 29.1603C187.33 29.229 186.711 29.4009 186.253 29.6759C185.818 29.9509 185.6 30.3633 185.6 30.9133C185.6 31.4862 185.818 31.9445 186.253 32.2882C186.688 32.609 187.387 32.7694 188.35 32.7694ZM188.144 18.986C190.504 18.986 192.394 19.4901 193.815 20.4984C195.236 21.4837 195.946 23.019 195.946 25.1043V32.9069C195.946 33.4798 195.797 33.9496 195.499 34.3162C195.201 34.6599 194.835 34.9578 194.399 35.2099C193.712 35.6224 192.853 35.9432 191.821 36.1723C190.813 36.4015 189.656 36.5161 188.35 36.5161C186.012 36.5161 184.145 36.0692 182.747 35.1755C181.372 34.2589 180.685 32.8955 180.685 31.0852C180.685 29.5269 181.166 28.3353 182.128 27.5104C183.091 26.6625 184.523 26.1469 186.425 25.9636L191.031 25.4824V25.0699C191.031 24.2679 190.722 23.695 190.103 23.3513C189.484 23.0076 188.625 22.8357 187.525 22.8357C186.654 22.8357 185.795 22.9388 184.947 23.1451C184.099 23.3513 183.343 23.6034 182.678 23.9013C182.403 23.695 182.174 23.4086 181.991 23.0419C181.808 22.6753 181.716 22.2857 181.716 21.8733C181.716 20.9108 182.231 20.2119 183.263 19.7765C183.927 19.5245 184.695 19.3297 185.566 19.1922C186.459 19.0547 187.319 18.986 188.144 18.986Z" fill="#101828"/>
<path d="M211.215 31.1883C211.215 32.8611 210.584 34.1787 209.324 35.1412C208.064 36.0807 206.231 36.5504 203.825 36.5504C201.945 36.5504 200.399 36.2755 199.184 35.7255C197.97 35.1526 197.362 34.3391 197.362 33.285C197.362 32.8038 197.466 32.3913 197.672 32.0476C197.878 31.681 198.142 31.3945 198.462 31.1883C199.104 31.5778 199.849 31.9216 200.697 32.2195C201.567 32.5174 202.553 32.6663 203.653 32.6663C205.348 32.6663 206.196 32.1851 206.196 31.2227C206.196 30.8102 206.036 30.4894 205.715 30.2602C205.417 30.0082 204.936 29.8134 204.271 29.6759L202.759 29.3322C200.949 28.9655 199.585 28.3812 198.669 27.5791C197.775 26.7542 197.328 25.6314 197.328 24.2106C197.328 22.6066 197.97 21.3348 199.253 20.3952C200.559 19.4557 202.312 18.986 204.512 18.986C205.612 18.986 206.609 19.1005 207.502 19.3297C208.396 19.5359 209.106 19.8567 209.634 20.2921C210.161 20.7275 210.424 21.2775 210.424 21.942C210.424 22.3774 210.332 22.7784 210.149 23.1451C209.966 23.4888 209.737 23.7638 209.462 23.97C209.187 23.8096 208.797 23.6492 208.293 23.4888C207.789 23.3055 207.227 23.1565 206.609 23.0419C206.013 22.9045 205.451 22.8357 204.924 22.8357C204.099 22.8357 203.446 22.9503 202.965 23.1794C202.507 23.4086 202.278 23.7523 202.278 24.2106C202.278 24.5085 202.404 24.772 202.656 25.0012C202.931 25.2074 203.412 25.3907 204.099 25.5512L205.474 25.8605C207.514 26.3417 208.98 27.0177 209.874 27.8885C210.768 28.7364 211.215 29.8363 211.215 31.1883Z" fill="#101828"/>
<path d="M191.242 49.187C191.242 48.9044 191.329 48.6676 191.505 48.4766C191.688 48.278 191.929 48.1787 192.227 48.1787C192.532 48.1787 192.773 48.278 192.949 48.4766C193.124 48.6676 193.212 48.9044 193.212 49.187C193.212 49.462 193.124 49.6988 192.949 49.8974C192.773 50.0883 192.532 50.1838 192.227 50.1838C191.929 50.1838 191.688 50.0883 191.505 49.8974C191.329 49.6988 191.242 49.462 191.242 49.187Z" fill="#101828"/>
<path d="M196.284 45.681C195.864 45.681 195.505 45.8185 195.207 46.0934C194.917 46.3608 194.772 46.7542 194.772 47.2736C194.772 47.7853 194.913 48.1711 195.196 48.4308C195.478 48.6905 195.837 48.8203 196.273 48.8203C196.525 48.8203 196.742 48.7898 196.926 48.7287C197.117 48.6599 197.281 48.5912 197.418 48.5224C197.548 48.6141 197.648 48.7134 197.716 48.8203C197.785 48.9273 197.819 49.061 197.819 49.2214C197.819 49.504 197.667 49.7331 197.361 49.9088C197.056 50.0769 196.632 50.1609 196.089 50.1609C195.486 50.1609 194.955 50.0539 194.497 49.8401C194.038 49.6262 193.683 49.3016 193.431 48.8662C193.187 48.4308 193.064 47.8999 193.064 47.2736C193.064 46.609 193.198 46.0629 193.465 45.6351C193.74 45.1997 194.103 44.8751 194.554 44.6612C195.012 44.4397 195.509 44.329 196.043 44.329C196.57 44.329 196.983 44.4244 197.281 44.6154C197.586 44.8064 197.739 45.0432 197.739 45.3258C197.739 45.4633 197.705 45.5893 197.636 45.7039C197.575 45.8108 197.502 45.9025 197.418 45.9789C197.273 45.9025 197.105 45.8337 196.914 45.7726C196.731 45.7115 196.521 45.681 196.284 45.681Z" fill="#101828"/>
<path d="M203.59 47.2507C203.59 47.8464 203.472 48.3659 203.235 48.8089C202.998 49.2443 202.662 49.5804 202.227 49.8172C201.791 50.0539 201.279 50.1723 200.691 50.1723C200.103 50.1723 199.591 50.0578 199.156 49.8286C198.721 49.5918 198.384 49.2557 198.148 48.8203C197.911 48.3773 197.793 47.8541 197.793 47.2507C197.793 46.6549 197.911 46.1393 198.148 45.7039C198.392 45.2685 198.732 44.9324 199.167 44.6956C199.61 44.4512 200.118 44.329 200.691 44.329C201.272 44.329 201.78 44.4512 202.215 44.6956C202.651 44.9324 202.987 45.2723 203.223 45.7153C203.468 46.1507 203.59 46.6625 203.59 47.2507ZM200.691 45.6695C200.332 45.6695 200.046 45.807 199.832 46.082C199.626 46.357 199.523 46.7465 199.523 47.2507C199.523 47.7624 199.626 48.1558 199.832 48.4308C200.038 48.7058 200.325 48.8433 200.691 48.8433C201.066 48.8433 201.352 48.7058 201.551 48.4308C201.757 48.1482 201.86 47.7548 201.86 47.2507C201.86 46.7542 201.757 46.3684 201.551 46.0934C201.344 45.8108 201.058 45.6695 200.691 45.6695Z" fill="#101828"/>
<path d="M208.965 47.5142H207.281V46.4257C207.281 46.1584 207.201 45.9674 207.04 45.8528C206.887 45.7306 206.697 45.6695 206.467 45.6695C206.299 45.6695 206.147 45.6962 206.009 45.7497C205.872 45.7955 205.757 45.8452 205.665 45.8987V47.5142H203.981V45.7268C203.981 45.5358 204.019 45.3792 204.096 45.257C204.18 45.1272 204.302 45.0126 204.462 44.9133C204.707 44.7376 205.012 44.5963 205.379 44.4894C205.746 44.3824 206.127 44.329 206.525 44.329C206.891 44.329 207.235 44.3863 207.556 44.5008C207.877 44.6154 208.155 44.7911 208.392 45.0279C208.453 45.0737 208.511 45.1234 208.564 45.1768C208.618 45.2227 208.66 45.2761 208.69 45.3372C208.766 45.4594 208.831 45.5969 208.885 45.7497C208.938 45.9025 208.965 46.0552 208.965 46.208V47.5142ZM212.265 47.5142H210.569V46.4257C210.569 46.1584 210.497 45.9674 210.351 45.8528C210.206 45.7306 210.015 45.6695 209.779 45.6695C209.603 45.6695 209.435 45.7039 209.274 45.7726C209.114 45.8414 208.98 45.9292 208.873 46.0361L207.98 45.0508C208.232 44.8598 208.518 44.6918 208.839 44.5467C209.16 44.4015 209.553 44.329 210.019 44.329C210.416 44.329 210.783 44.3977 211.119 44.5352C211.463 44.6727 211.738 44.8904 211.944 45.1883C212.158 45.4862 212.265 45.8796 212.265 46.3684V47.5142ZM205.665 46.9871V49.989C205.597 50.0043 205.493 50.0234 205.356 50.0463C205.218 50.0692 205.07 50.0807 204.909 50.0807C204.588 50.0807 204.352 50.0234 204.199 49.9088C204.054 49.7942 203.981 49.588 203.981 49.2901V46.9871H205.665ZM208.965 46.9871V49.989C208.896 50.0043 208.793 50.0234 208.656 50.0463C208.518 50.0692 208.369 50.0807 208.209 50.0807C207.888 50.0807 207.651 50.0234 207.499 49.9088C207.353 49.7942 207.281 49.588 207.281 49.2901V46.9871H208.965ZM212.265 46.9871V49.989C212.188 50.0043 212.082 50.0234 211.944 50.0463C211.807 50.0692 211.661 50.0807 211.509 50.0807C211.18 50.0807 210.94 50.0234 210.787 49.9088C210.642 49.7942 210.569 49.588 210.569 49.2901V46.9871H212.265Z" fill="#101828"/>
</svg>
